# xmcd
#
# Track frame offsets:
# 150
# 23444
# 49110
# 62489
# 78255
# 100653
# 109896
# 130730
# 141789
# 164868
# 179054
# 188659
# 210059
#
# Disc length: 3105 seconds
#
# Revision: 0
# Processed by: cddbd v1.4PL0 Copyright (c) Steve Scherf et al.
# Submitted via: Axialis_AX_CDPlayer 2.6
#
DISCID=a70c1f0d
DTITLE=SF-Blues - SF-Blues
DYEAR=1900
DGENRE=
TTITLE0=Heresy
TTITLE1=A little bit of blues,  a little bit of rock and roll
TTITLE2=Cryin' won't do you no good
TTITLE3=Walk of shame
TTITLE4=Neighborhood kid
TTITLE5=Deep, deep love
TTITLE6=In and out
TTITLE7=Finest hour
TTITLE8=Back to the Woods
TTITLE9=Turn around
TTITLE10=Toon town rag
TTITLE11=Dance master
TTITLE12=The blues is all right
EXTD=
EXTT0=
EXTT1=
EXTT2=
EXTT3=
EXTT4=
EXTT5=
EXTT6=
EXTT7=
EXTT8=
EXTT9=
EXTT10=
EXTT11=
EXTT12=
PLAYORDER=
